<svg width="41" height="41" viewBox="0 0 41 41" fill="none" xmlns="http://www.w3.org/2000/svg">
<path d="M2.92856 7.92859C2.92856 5.16717 5.16713 2.92859 7.92856 2.92859H33.0714C35.8328 2.92859 38.0714 5.16717 38.0714 7.92859V33.0714C38.0714 35.8329 35.8328 38.0714 33.0714 38.0714H7.92856C5.16714 38.0714 2.92856 35.8329 2.92856 33.0714V7.92859Z" stroke="white" stroke-width="2" stroke-miterlimit="10"/>
<path d="M3.25269 8.82538L38.0714 8.78072" stroke="white" stroke-width="2" stroke-miterlimit="10"/>
<path d="M31.6293 8.82538V16.4648" stroke="white" stroke-width="2" stroke-miterlimit="10"/>
<path d="M30.1078 18.0023C30.1078 18.4058 30.2681 18.7928 30.5535 19.0782C30.8388 19.3635 31.2258 19.5238 31.6293 19.5238C32.0328 19.5238 32.4198 19.3635 32.7052 19.0782C32.9905 18.7928 33.1508 18.4058 33.1508 18.0023C33.1508 17.5988 32.9905 17.2118 32.7052 16.9265C32.4198 16.6411 32.0328 16.4808 31.6293 16.4808C31.2258 16.4808 30.8388 16.6411 30.5535 16.9265C30.2681 17.2118 30.1078 17.5988 30.1078 18.0023Z" stroke="white" stroke-width="2" stroke-miterlimit="10"/>
<path d="M2.92856 29.9399L11.4953 21.4762L28.3095 38.0714" stroke="white" stroke-width="2" stroke-miterlimit="10"/>
<path d="M21.4762 32.5397L27.7238 25.381L37.0952 36.1191" stroke="white" stroke-width="2" stroke-miterlimit="10"/>
<path d="M3 9H38V33C38 35.7614 35.7614 38 33 38H8C5.23858 38 3 35.7614 3 33V9Z" fill="white" fill-opacity="0.3"/>
</svg>
