<svg width="41" height="41" viewBox="0 0 41 41" fill="none" xmlns="http://www.w3.org/2000/svg">
<path d="M2.92856 7.92859C2.92856 5.16717 5.16713 2.92859 7.92856 2.92859H33.0714C35.8328 2.92859 38.0714 5.16717 38.0714 7.92859V33.0714C38.0714 35.8329 35.8328 38.0714 33.0714 38.0714H7.92856C5.16714 38.0714 2.92856 35.8329 2.92856 33.0714V7.92859Z" stroke="white" stroke-width="2" stroke-miterlimit="10"/>
<path d="M3.25269 28.8254L38.0714 28.7807" stroke="white" stroke-width="2" stroke-miterlimit="10"/>
<path d="M31.6293 28.8254V36.4648" stroke="white" stroke-width="2" stroke-miterlimit="10"/>
<path d="M30.1078 38.0023C30.1078 38.4058 30.2681 38.7928 30.5534 39.0782C30.8388 39.3635 31.2257 39.5238 31.6293 39.5238C32.0328 39.5238 32.4198 39.3635 32.7051 39.0782C32.9905 38.7928 33.1508 38.4058 33.1508 38.0023C33.1508 37.5988 32.9905 37.2118 32.7051 36.9265C32.4198 36.6411 32.0328 36.4808 31.6293 36.4808C31.2257 36.4808 30.8388 36.6411 30.5534 36.9265C30.2681 37.2118 30.1078 37.5988 30.1078 38.0023Z" stroke="white" stroke-width="2" stroke-miterlimit="10"/>
<path d="M3 29H38V33C38 35.7614 35.7614 38 33 38H8C5.23858 38 3 35.7614 3 33V29Z" fill="white" fill-opacity="0.3"/>
</svg>
